<svg xmlns="http://www.w3.org/2000/svg" width="1024" height="1024"><path fill="#FEFEFE" d="m469 92 1.102 1.328c8.613 10.866 13.26 22.129 13.21 35.985l.05 2.685c.01 14.013-5.913 25.625-15.425 35.752-20.127 19.006-45.828 21.171-72.14 20.434-7.328-.355-13.87-1.759-20.797-4.184l-3.29-1.133c-15.17-5.8-28.121-15.34-35.71-29.867-6.023-13.931-5.897-25.41-2-40-7.192.641-13.885 2.445-20.812 4.438l-3.71 1.066C287.072 125.095 264.196 133.086 244 145c1.397 4.503 2.418 7.057 6.625 9.371q2.175 1.06 4.375 2.066 2.317 1.145 4.625 2.31l2.273 1.143c11.51 6.079 21.826 15.682 28.102 27.11l1.477 2.648c5.425 11.548 5.986 27.574 1.898 39.665A76 76 0 0 1 291 234l-1.25 2.516C281.18 252.39 265.758 261.632 249 267c-24.246 6.99-51.847 6.168-74.472-5.7-17.866-9.921-25.472-22.596-31.528-41.3-4.853 3.75-8.504 7.799-12.187 12.688l-1.7 2.245c-23.677 31.817-34.251 64.233-34.274 103.776l-.015 5.665q-.019 7.657-.024 15.316l-.012 9.58q-.02 15.003-.027 30.006-.007 17.29-.05 34.58-.033 13.39-.034 26.78a5049 5049 0 0 1-.025 15.975 2976 2976 0 0 0-.01 15.018q.002 2.75-.013 5.5c-.216 11.766-.216 11.766 2.687 23.063 1.15 3.038 1.087 6.012 1.116 9.231l.031 2.103c.03 2.312.04 4.623.049 6.935q.025 2.536.054 5.072c.048 4.638.077 9.276.103 13.915.025 3.935.062 7.87.098 11.804.222 24.062.249 48.122.192 72.185l-.022 10.445-.02 10.415-.004 2.078c-.017 8.198-.045 16.396-.093 24.594-.033 5.836-.051 11.672-.065 17.507a1516 1516 0 0 1-.042 7.19c-.153 18.962.519 38.05 6.537 56.209l.918 2.88c2.727 8.347 5.959 16.369 9.832 24.245l.909 1.871C133.167 831.955 159.737 860.028 189 882l1.965 1.498c13.041 9.908 26.88 18.29 41.035 26.502l2.453 1.441c60.92 35.734 132.72 53.91 202.419 62.302q2.074.25 4.147.51c45.375 5.689 94.559 5.665 139.933-.003 2.18-.266 4.36-.512 6.542-.754C675.152 963.736 765.08 935.136 875 843l2.504-2.844c20.945-23.87 36.416-53.308 42.808-84.468l.484-2.35c2.403-12.641 2.332-25.4 2.254-38.21l-.019-5.287q-.02-5.654-.048-11.306c-.028-5.964-.044-11.928-.059-17.892l-.023-9.25c-.036-13.867-.082-27.733-.148-41.6a8682 8682 0 0 1-.089-28.143c-.008-4.956-.023-9.91-.056-14.866q-.046-6.982-.042-13.965a609 609 0 0 0-.03-5.113c-.022-2.333-.019-4.665-.01-6.998l-.015-3.949c.442-3.398.9-4.796 2.488-7.659 2.444-4.505 2.558-8.36 2.495-13.414l.015-2.743c.011-3.018-.006-6.035-.023-9.052q.003-3.255.011-6.512c.01-5.887-.005-11.774-.026-17.66-.017-6.176-.014-12.351-.013-18.527-.002-10.379-.02-20.758-.046-31.138-.032-11.966-.042-23.932-.04-35.898q-.002-19.159-.032-38.318-.005-5.493-.006-10.986-.004-8.674-.035-17.348-.008-3.165-.007-6.33C927.306 301.556 917.46 265.722 893 234l-2.04-2.781c-3.692-5.043-3.692-5.043-8.96-8.219l-.664 2.86c-3.302 13.624-8.212 24.142-18.336 34.14l-1.605 1.672c-16.965 16.223-41.814 18.765-63.985 18.539-7.171-.168-13.55-.999-20.41-3.211l-1.942-.618c-15.96-5.193-32.41-14.104-40.69-29.398-6.601-14.306-8.474-26.273-3.614-41.609C738.254 185.06 753.93 172.747 772 162q3.632-2.176 7.25-4.375l3.266-1.96c2.57-1.427 2.57-1.427 3.484-3.665-35.526-19.762-35.526-19.762-74-28l-.078 3.516c-.562 17.529-5.126 31.072-17.313 44.097-17.325 15.848-43.525 21.344-66.399 20.528-20.305-1.292-38.915-8.66-54.21-22.141l-1.926-1.57c-8.824-7.788-13.438-20.156-14.32-31.633C557.127 119.56 564.546 106.189 575 93a296 296 0 0 0-37.855-2.23h-5.175q-5.358.003-10.716.024-6.84.023-13.68.02-5.316.001-10.632.013l-5.046.006q-3.52.004-7.037.022l-2.061-.002c-4.682.031-9.17.5-13.798 1.147"/><path fill="#F3C988" d="M100 526h1l.516 3.848C108.43 579.745 135.898 620.808 175 652q1.668 1.386 3.332 2.777c20.112 16.68 43.157 29.975 66.672 41.258 2.05.99 4.083 2.01 6.117 3.031 77.494 38.422 169.862 54.318 255.879 54.059l2.993-.007q10.004-.026 20.007-.118l2.136-.019c31.036-.31 62.246-4.064 92.864-8.981l3.318-.518C658.853 738.663 688.67 730.677 718 721l2.449-.798C757.072 708.175 793.574 691.476 825 669l2.086-1.482c22.748-16.223 44.6-34.625 60.914-57.518l1.262-1.75c9.736-13.624 18.347-28.25 22.587-44.552 1.094-3.865 1.746-5.44 5.198-7.635L920 555l2-1q.2 22.826.391 45.653.09 10.61.182 21.22c.155 17.713.293 35.426.402 53.14l.052 7.962q.079 11.415.116 22.83.013 3.464.037 6.927c.117 17.708-.01 35.65-4.805 52.83l-.784 2.89c-8.4 29.73-25.041 56.444-46.08 78.849a165 165 0 0 0-5.886 6.699c-8.102 9.323-17.902 17.443-27.625 25l-2.12 1.652c-69.014 53.475-155.65 82.463-241.63 93.223l-2.33.295c-25.802 3.22-51.573 4.212-77.546 4.148q-3.525-.008-7.048-.011c-22.193-.036-44.273-.298-66.323-3.057-2.077-.26-4.155-.507-6.234-.754-55.452-6.68-109.403-20.5-160.769-42.496l-2.755-1.167C206.103 902.113 141.58 855.215 112 789c-4.885-12.282-8.778-24.966-11-38l-.54-3.02c-1.94-12.395-1.73-24.775-1.69-37.293v-7.504c0-5.994.012-11.989.027-17.983q.018-7.244.026-14.487c.05-48.241.437-96.477 1.177-144.713"/><path fill="#ED9983" d="M926 339h1q.141 40.08.207 80.163.028 18.61.095 37.22.06 16.223.074 32.444c.006 5.725.018 11.451.047 17.177q.039 8.085.03 16.172 0 2.965.024 5.931c.02 2.704.015 5.407.004 8.11l.035 2.359c-.067 6.16-1.75 11.434-5.999 16.026C918.9 556.92 917.565 558 914 558l-.344 3.07C907.531 597.748 872.381 634.665 844 656l-3.691 2.844C824.947 670.607 808.937 680.654 792 690l-2.539 1.41c-14.036 7.753-28.543 14.189-43.357 20.306a733 733 0 0 0-7.624 3.21c-72.104 30.097-154.119 39.077-231.48 39.199l-2.877.008c-18.707.04-37.21-.827-55.81-2.82l-2.425-.259C413.878 747.611 382.32 742.48 351 735l-3.548-.846C277.35 717.07 208.47 686.354 156 636l-2.71-2.586C147.37 627.64 142.083 621.517 137 615l-2.281-2.906c-11.152-14.513-19.913-30.278-26.469-47.344l-.817-2.05c-3.334-9.058-4.5-18.03-6.433-27.7l-1 68h-1l-.018-3.015q-.086-14.1-.218-28.202c-.044-4.832-.084-9.665-.11-14.497q-.041-7.003-.117-14.005a915 915 0 0 1-.035-5.329c-.01-2.498-.037-4.996-.07-7.495l.005-2.197c-.069-3.79-.532-6.735-1.943-10.26-2.469-6.888-1.886-14.227-1.835-21.444v-4.969c-.002-4.475.016-8.95.037-13.424.019-4.684.02-9.369.024-14.053.01-8.861.034-17.722.064-26.582.034-10.092.05-20.184.065-30.276Q94.898 376.127 95 345h1l.629 3.855c4.92 28.73 15.714 55.478 34.371 78.145l1.382 1.7c3.133 3.832 6.35 7.583 9.618 11.3l2.633 3.008c4.214 4.729 8.474 9.186 13.324 13.262 2.305 1.952 4.51 3.994 6.73 6.043C225.966 517.433 311.91 546.007 392 559l3.22.537a704 704 0 0 0 36.342 5.088l2.963.336c2.785.3 5.57.576 8.358.837q2.268.216 4.533.451c20.228 2.062 40.401 2.109 60.709 2.063l5.26-.006c24.65-.042 49.117-.323 73.615-3.306l5.259-.618C652.912 557.165 713.24 543.497 769 518l2.97-1.35c27.516-12.6 54.085-28.047 77.47-47.367a343 343 0 0 1 4.564-3.67C887.457 438.398 911.99 404.888 923 363c.235-.835.47-1.67.71-2.531 1.803-7 1.93-14.281 2.29-21.469"/><path fill="#6C3A28" d="M100 526h1l.516 3.848C108.43 579.745 135.898 620.808 175 652q1.668 1.386 3.332 2.777c20.112 16.68 43.157 29.975 66.672 41.258 2.05.99 4.083 2.01 6.117 3.031 77.494 38.422 169.862 54.318 255.879 54.059l2.993-.007q10.004-.026 20.007-.118l2.136-.019c31.036-.31 62.246-4.064 92.864-8.981l3.318-.518C658.853 738.663 688.67 730.677 718 721l2.449-.798C757.072 708.175 793.574 691.476 825 669l2.086-1.482c22.748-16.223 44.6-34.625 60.914-57.518l1.262-1.75c9.736-13.624 18.347-28.25 22.587-44.552 1.094-3.865 1.746-5.44 5.198-7.635L920 555l2-1c.103 7.609.172 15.218.22 22.827q.03 3.87.082 7.738c.37 28.018-3.887 52.776-17.292 77.566a412 412 0 0 0-2.842 5.38C894.23 682.169 883.584 695.08 872 707l-1.907 1.985c-8.655 8.983-17.426 17.353-27.452 24.784a201 201 0 0 0-4.801 3.735C822.96 749.339 806.588 758.786 790 768l-2.153 1.21C757.404 786.257 724.253 797.807 691 808l-2.523.776C651.235 820.086 611.657 825.222 573 829l-3.633.36c-19.471 1.81-38.952 1.818-58.492 1.827l-3.83.004c-23.38-.002-46.429-.848-69.67-3.441l-3.031-.334c-15.086-1.672-30.003-3.694-44.885-6.718-3.12-.63-6.244-1.231-9.37-1.823C301.921 804.012 224.283 774.169 164 721l-1.61-1.419c-5.551-4.92-10.937-9.884-15.702-15.589a102 102 0 0 0-3.688-4.11c-28.097-29.802-43.656-68.406-43.293-109.136q.009-2.822.013-5.644c.011-4.89.04-9.781.074-14.672.031-5.015.044-10.03.06-15.045q.048-14.692.146-29.385"/><path fill="#F4C988" d="M133.441 484.188C141.09 486.616 146.313 494.243 150 501c5.796 12.315 8.09 23.675 8.246 37.168l.1 5.896q.071 4.585.13 9.169c-.245 26.399-.245 26.399 12.149 48.892 4.72 4.453 8.59 5.291 14.973 5.113 3.319-.329 4.957-.936 7.402-3.238 3.545-5.788 5.112-10.84 5.21-17.645.03-1.316.058-2.633.087-3.99q.063-3.13.104-6.26c.028-2.021.074-4.041.122-6.062l.06-3.656c.952-7.742 5.443-11.886 11.167-16.7 4.286-2.225 7.516-2.47 12.25-1.687 9.816 3.124 17.233 11.149 22 20 2.787 6.028 4.256 12.043 5.438 18.563C251.34 596.583 254.815 604.62 263 611c2.916 1.855 5.902 3.471 9 5l1.848 1.113c5.443 2.243 12.781 1.698 18.425.34 4.47-2 7.974-5.298 11.664-8.453 8.036-6.86 14.058-9.766 24.793-9.379 12.016 1.393 22.204 8.103 29.805 17.332 2.264 3.164 3.958 6.469 5.465 10.047l1.032 2.135c1.21 3.579 1.265 6.925 1.277 10.658l.076 4.6q.042 3.586.071 7.174c.12 12.648.517 24.57 9.544 34.433 7.775 5.655 15.505 7.027 25 6 5.18-1.637 8.929-3.768 12.5-7.875 4.4-9.166 3.872-18.271 3.979-28.28.207-9.788.708-18.735 7.646-26.22l2.133-2.398c6.676-5.421 13.458-6.983 21.93-6.914l2.77.015c10.087.341 18.637 3.639 25.73 11.11 5.388 7.8 5.752 15.053 5.753 24.277l.04 3.667c.041 3.852.063 7.704.082 11.556q.034 5.772.091 11.544.037 3.582.044 7.165c.102 10.96 1.596 19.444 8.302 28.353 6.902 5.982 15.147 7.546 24.07 7.285 6.12-.596 12.017-2.292 16.594-6.623 7.279-9.054 7.03-19.12 6.961-30.1-.032-18.844 2.354-34.024 15.906-48.277 12.573-11.638 30.405-16.95 47.356-16.597 9.94.997 19.771 4.616 26.703 12.007 5.049 6.528 5.652 13.631 5.847 21.617.456 11.092 2.308 20.848 9.563 29.688 6.099 5.02 11.095 6.243 19 8v40c6.45-1.681 6.45-1.681 12.894-3.381l2.438-.623 2.491-.65C684 730 684 730 687 731c-58.101 17.732-119.502 23.05-180 23.125l-2.874.008c-18.708.04-37.212-.826-55.813-2.82l-2.425-.259C413.878 747.611 382.32 742.48 351 735l-3.548-.846C277.35 717.07 208.47 686.354 156 636l-2.71-2.586C147.37 627.64 142.083 621.517 137 615l-2.281-2.906C117.622 589.845 100.153 559.074 102 530a56.5 56.5 0 0 1 7 4c1.954.278 1.954.278 4 .188l2.063-.02c2.155-.111 2.155-.111 4.937-1.168 1.118-2.118 1.118-2.118 2-5l.734-1.76c2.755-7.072 2.746-13.976 2.829-21.49q.051-3.727.128-7.453l.038-3.302c.28-3.093.833-5.249 2.271-7.995 3-2 3-2 5.441-1.812"/><path fill="#6B3A28" d="M99 681c2.027 3.768 2.634 7.372 3.25 11.563 4.792 29.336 18.456 56.266 36.75 79.437l1.262 1.613C151.485 787.81 164.604 801.036 179 812q1.873 1.48 3.742 2.965c65.166 51.298 148.341 78.837 271.875 95.726 3.162.289 6.319.61 9.477.934 38.322 3.616 77.671 2.51 115.906-1.625l2.06-.22c9.68-1.043 19.313-2.331 28.94-3.78l2.053-.306C646.456 900.695 678.957 892.693 711 882l3.528-1.175C732.155 874.891 749.17 867.91 766 860l2.764-1.296C811.241 838.586 854.04 809.52 883 772l1.313-1.687C903.132 745.98 917.968 715.928 921 685h1q.142 11.412.207 22.824.028 5.303.095 10.605c.205 16.208.057 31.826-4.302 47.571l-.637 2.303C911.749 788.172 902.313 807.435 890 824l-1.225 1.683c-5.32 7.29-11.087 14.041-17.263 20.618a165 165 0 0 0-5.887 6.699c-8.102 9.323-17.902 17.443-27.625 25l-2.12 1.652c-69.014 53.475-155.65 82.463-241.63 93.223l-2.33.295c-25.802 3.22-51.573 4.212-77.546 4.148q-3.525-.008-7.048-.011c-22.193-.036-44.273-.298-66.323-3.057-2.077-.26-4.155-.507-6.234-.754-55.452-6.68-109.403-20.5-160.769-42.496l-2.755-1.167C206.103 902.113 141.58 855.215 112 789c-4.886-12.285-8.768-24.965-11-38l-.543-2.91c-2.17-13.424-1.674-26.97-1.582-40.528q.016-3.87.027-7.744.034-9.409.098-18.818"/><path fill="#E8B470" d="M921 610h1q.262 15.28.5 30.563l.036 2.304c.466 30.047.584 60.083.464 90.133h-1l-1-40-2.062 8.875C913.057 725.76 902.256 748.652 887 768l-2.234 2.867C872.69 785.984 859.184 800.01 844 812q-1.698 1.397-3.39 2.8c-9.43 7.77-19.292 14.662-29.61 21.2l-2.314 1.468C770.892 861.22 710.332 896 664 896v-81l-2-1 2.55-.513c8.794-1.82 17.392-4.026 26.013-6.55l2.002-.585C716.308 799.39 739.4 791.093 762 781l2.598-1.15c13.623-6.08 26.515-13.356 39.402-20.85l2.204-1.266C826.358 746.154 845.16 732.024 862 716l1.862-1.764c28.905-27.553 48.33-60 56.138-99.236l.605-3.016z"/><path fill="#622E21" d="M921 554h1c.103 7.609.172 15.218.22 22.827q.03 3.87.082 7.738c.37 28.018-3.887 52.776-17.292 77.566a412 412 0 0 0-2.842 5.38C894.23 682.169 883.584 695.08 872 707l-1.907 1.985c-8.655 8.983-17.426 17.353-27.452 24.784a201 201 0 0 0-4.801 3.735C822.96 749.339 806.588 758.786 790 768l-2.153 1.21C751.685 789.46 695.752 817.524 653 816c3.863-2.318 6.023-2.289 11-3v-74h-5c3.623-2.415 7.256-3.261 11.418-4.32l5.204-1.36c.909-.235 1.818-.47 2.754-.714C755.127 712.64 840.305 676.93 888 610l1.262-1.75c9.736-13.624 18.347-28.25 22.587-44.552 1.107-3.912 1.743-5.444 5.26-7.635L920 555z"/><path fill="#E9B471" d="M892 508c2.455 3.683 2.266 5.583 2.309 9.977l.076 4.222q.042 3.308.071 6.615c-.09 14.01-.09 14.01 6.044 26.186 3.27 2.615 5.623 3.13 9.688 3.063L914 558c-4.05 36.167-38.142 71.883-64.687 93.938A390 390 0 0 1 844 656l-3.691 2.844C824.947 670.607 808.937 680.654 792 690l-2.539 1.41c-14.036 7.753-28.543 14.189-43.357 20.306a733 733 0 0 0-7.624 3.21c-10.436 4.352-21.25 7.61-32.043 10.949l-2.403.75q-3.453 1.07-6.913 2.117l-2.072.646c-4.338 1.295-8.527 2.002-13.037 2.399-2.859.303-5.557 1.017-8.324 1.775-3.506.958-6.008 1.438-9.688 1.438v-40h-6v-1l2.273-.043c10.562-.492 18.158-3.867 26.016-10.918 1.959-2.334 2.812-4.516 3.899-7.351 1.164-2.594 1.164-2.594 2.812-4.688 3.206-1.048 6.174-1.322 9.531-1.61 12.587-1.417 23.855-9.807 31.907-19.202 6.555-8.75 9.97-19.394 11.448-30.138 2.109-14.775 8.202-26.736 19.989-36.112 8.335-5.834 19.487-11.161 29.883-10.391 7.278 1.47 12.1 4.303 16.242 10.453 2.27 4.422 2.311 8.687 2.344 13.555l.044 2.484c.046 2.612.08 5.224.112 7.836q.063 5.153.156 10.305l.016 2.361c.128 7.098 1.123 13.254 6.328 18.459 5.599 4.163 12.333 3.742 19 3 3.232-.995 6.06-2.346 9-4l2.121-.883c2.373-1.41 2.826-2.593 3.879-5.117l1.219-2.297 1.281-2.453 1.281-2.422c3.313-7.686 3.522-14.91 3.555-23.19.008-2.075.029-4.15.052-6.224.048-4.409.081-8.818.112-13.226.036-5.106.078-10.211.136-15.316.02-2.024.028-4.049.036-6.073.194-18.14 3.996-35.6 17.328-48.776 6.465-5.683 6.465-5.683 12-4.023"/><path fill="#FBF4E0" d="M628 34c9.43.984 16.058 8.43 21.984 15.379 2.418 3.143 4.656 6.367 6.828 9.684l1.132 1.713c1.963 3.096 3.303 5.895 4.357 9.411 1.113 3.128 2.104 4.45 5.035 6.028q2.005.895 4.039 1.722 2.173.986 4.336 1.997l2.186 1.019c14.243 7.094 26.04 18.561 32.04 33.422.92 3.134 1.365 5.4 1.063 8.625l2 1c-.45 20.29-4.995 35.51-20 50-17.665 15.29-44.286 20.445-67 19-19.61-2.087-37.108-8.822-52-22l-2.148-1.793c-9.179-8.247-14.166-20.275-15.098-32.41C556.124 119.47 563.65 104.763 575 92c7.33-7.612 16.79-13.008 25.887-18.258C612.365 67.108 623.252 60.56 627 47c.623-4.34.923-8.619 1-13"/><path fill="#EDD6BD" d="M381 374c9.11 1.149 15.15 6.45 20.953 13.309 4.909 6.454 9.975 13.385 12.672 21.066 2.419 5.277 8.671 7.252 13.613 9.691 4.779 2.383 8.73 5.458 12.762 8.934l2.227 1.758C453.627 437.299 461.89 449.54 464 463c1.254 17.874-2.401 32.028-14 46-5.546 5.905-11.876 10.205-19 14l-2.41 1.305C408.05 534.527 381.93 537.149 360 530l-1.937-.618c-16.454-5.352-33.499-14.902-41.883-30.753-5.647-12.583-8.096-27.375-3.493-40.754A99 99 0 0 1 315 453l1.098-2.309c3.159-6.178 7.383-11.454 11.902-16.691l1.578-1.836c7.415-7.976 17.024-13.963 26.547-19.101 9.386-5.248 18.699-12.164 23.117-22.293 1.502-5.49 1.668-11.104 1.758-16.77"/><path fill="#FBF4E0" d="M798 123c11.554 1.815 19.5 11.833 26.047 20.805 2.933 4.425 5.019 8.256 6.39 13.382 1.621 4.461 3.929 5.906 7.995 7.947 2.141.996 4.292 1.967 6.447 2.932 5.624 2.54 10.328 6.084 15.121 9.934l2.133 1.602c11.138 8.867 17.858 21.778 20.367 35.585 1.497 13.264-3.484 27.045-11.605 37.532-2.214 2.53-4.504 4.92-6.895 7.281l-1.828 1.895c-17.348 16.706-41.892 19.55-64.762 19.316-7.171-.168-13.55-.999-20.41-3.211l-1.942-.618c-16.254-5.289-33.33-14.684-41.617-30.323-6.839-14.154-8.51-26.464-3.687-41.684C737.344 184.82 753.657 171.839 772 161c2.34-1.407 4.67-2.827 7-4.25l3.125-1.89c4.88-3.157 8.237-5.893 11.125-10.985l1.516-2.633c2.189-3.976 2.505-6.785 2.797-11.367l.253-3.883zM213 287c10.744 1.473 15.745 8.782 22 17l1.953 2.55c3.138 4.278 5.254 7.975 6.922 13.012 2.993 7.07 9.199 9.117 15.75 12.254 15.107 7.282 27.393 19.936 33.813 35.434 3.722 12.38 3.635 28.248-1.895 40.035-10.174 17.9-25.396 29.827-45.267 35.433-24.976 6.766-51.655 4.678-74.401-7.968-15.324-9.373-23.77-19.471-28.875-36.75-3.25-13.793.48-26.974 7.063-39.187 9.403-14.937 22.538-24.258 37.288-33.374 15.561-9.557 15.561-9.557 23.649-25.439.832-4.318 1.48-8.634 2-13M400 31c10.648 1.325 18.43 10.32 24.914 18.379C436 64.592 436 64.592 436 72l3.688 1c13.848 4.695 31.121 16.865 38.312 30 4.277 9.07 6.194 16.184 6.25 26.125.03 1.35.03 1.35.063 2.727.082 14.28-6.02 26.254-15.875 36.398-18.922 18.478-43.302 21.328-68.442 21.031-8.827-.164-16.65-1.359-24.996-4.281l-3.29-1.133c-15.465-5.912-29.032-16-36.71-30.867-6.347-14.706-6.137-27.923-1-43 3.441-8.346 8.756-14.58 15-21l2.438-2.687c7.686-6.937 16.92-12.079 25.794-17.33C385.99 63.676 395.822 57.25 399 47c.799-5.303.928-10.646 1-16M776 294c9.92.933 16.626 10.259 22.89 17.379C810 325.183 810 325.183 810 333l2.547.773C829.948 339.954 846.482 352.371 855 369l1.188 2.168c4.962 10.839 4.668 26.304 1.187 37.582C849.6 427.778 835.534 439.117 817 447c-24.189 9.228-51.334 8.425-75.078-1.806C727.29 438.417 715.217 428.142 709 413l-.969-2.293c-4.496-12.427-2.84-27.02 2.375-38.914 8.848-17.59 22.23-28.16 38.782-37.856C759.833 327.682 770.159 321.479 774 309c1.012-4.958 1.55-9.962 2-15M613 382c13.612 3.889 21.892 15.46 29 27 5 9.558 5 9.558 5 13l2.055.281c3.653.892 6.78 2.453 10.07 4.219l1.998 1.072c6.236 3.454 11.61 7.626 16.877 12.428l2.242 1.996c10.272 9.632 15.765 21.696 16.23 35.73.167 17.037-4.805 29.438-16.534 41.962-16.322 15.651-39.135 21.94-61.313 21.75l-3.849-.028C592.871 541.006 573 533.13 557 518c-10.501-10.994-14.531-23.488-14.242-38.453 1.216-17.805 11.303-32.082 23.867-44.047 6.135-5.258 12.827-9.313 19.777-13.367 10.904-6.391 19.532-13.189 24.848-24.883 1.16-5.026 1.434-10.11 1.75-15.25M212 113c13.848 3.445 22.362 15.307 29.816 26.8C243 142 243 142 243 144l2 1 1.156 3.316c1.578 3.868 3.514 5.05 7.238 6.736l2.106.886c14.502 6.692 27.752 16.785 35.5 31.062l1.473 2.645c5.432 11.545 5.99 27.577 1.902 39.667A77 77 0 0 1 292 234c-.4.819-.802 1.637-1.215 2.48-8.712 16.288-24.64 26.028-41.785 31.52-24.912 7.182-53.197 6.073-76.187-6.625-15.16-8.839-24.738-20.945-29.743-37.727-3.292-12.69.494-25.803 6.418-37.136 2.732-4.54 6.027-8.535 9.512-12.512l1.613-1.867c7.295-7.856 16.901-13.312 26.075-18.696 9.669-5.715 20.051-12.026 23.93-23.218.57-3.305.752-6.626.945-9.969l.13-2.113q.158-2.568.307-5.137"/><path fill="#612E20" d="M921 685h1q.142 11.412.207 22.824.028 5.303.095 10.605c.205 16.208.057 31.826-4.302 47.571l-.637 2.303C911.749 788.172 902.313 807.435 890 824l-1.225 1.683c-5.32 7.29-11.087 14.041-17.263 20.618a165 165 0 0 0-5.887 6.699c-8.102 9.323-17.902 17.443-27.625 25l-2.12 1.652c-49.388 38.268-106.818 62.353-166.63 79.035l-2.632.74c-4.316 1.156-8.105 1.842-12.618 1.573 3.544-2.044 5.602-2.267 10-3v-60l-3-1 1.79-.516C698.063 886.308 732.705 875.648 766 860l2.764-1.296C811.241 838.586 854.04 809.52 883 772l1.313-1.687C903.132 745.98 917.968 715.928 921 685"/><path fill="#EDD6BD" d="M401 31c8.91.557 16.44 9.807 22 16 5.298 6.585 13 16.296 13 25l3.688 1c13.848 4.695 31.121 16.865 38.312 30 4.277 9.07 6.194 16.184 6.25 26.125l.063 2.727c.082 14.28-6.02 26.254-15.875 36.398-16.27 15.89-37.72 20.983-59.75 21.063l-2.175.008c-13.848.013-25.76-1.652-38.513-7.321v-1l1.737.08c20.246.801 33.237-4.268 48.279-17.717 13.298-12.722 24.403-29.352 25.359-48.175-.225-9.076-3.906-16.872-8.715-24.387-3.367-5.68-5.95-11.787-8.66-17.801l-.445 2.203c-4.75 21.294-18.562 35.235-33.68 49.922C375.299 141.231 364.589 153.243 364 177c-4.675-3.87-6.565-8.473-7.296-14.404-.142-2.603-.171-5.177-.142-7.784l.023-2.8c.438-18.28 9.61-32.659 22.567-45.094 4.047-3.789 8.159-7.495 12.399-11.066C397.416 90.888 401.856 85.473 406 79l1.387-2.14c4.298-7.903 3.93-18.01 1.625-26.5-2.251-5.993-5.11-11.662-8.012-17.36zM628 34c9.43.984 16.058 8.43 21.984 15.379 2.418 3.143 4.656 6.367 6.828 9.684l1.132 1.713c1.963 3.096 3.303 5.895 4.357 9.411 1.113 3.128 2.104 4.45 5.035 6.028q2.005.895 4.039 1.722 2.173.986 4.336 1.997l2.186 1.019c14.243 7.094 26.04 18.561 32.04 33.422.92 3.134 1.365 5.4 1.063 8.625l2 1c-.45 20.29-4.995 35.51-20 50-17.665 15.29-44.286 20.445-67 19-10.018-1.066-19.577-3.423-29-7l1-2 2.5.5c13.453 1.922 25.598-2.602 36.5-10.5 15.783-12.832 31.57-30.936 34-52l.234-1.89c.778-11.659-5.593-22.223-11.363-31.887-2.304-3.969-4.118-7.987-5.871-12.223l-.559 2.281c-3.59 13.151-9.842 24.806-19.398 34.606-2.086 2.072-2.086 2.072-3.805 4.445-2.472 2.947-5.178 5.301-8.093 7.798-9.293 8.1-19.02 17.085-25.145 27.87l-1.48 2.488c-4.192 7.926-4.399 15.735-4.52 24.512-7.56-9.662-8.356-20.14-7-32 3.718-21.838 21.301-37.945 37.29-51.73 7.678-6.654 14.806-14.863 15.929-25.305.656-9.438.247-17.475-4.219-25.965q-1.385-3.057-2.75-6.125Q629.129 36.436 628 34M213 113c13.425 4.856 23.352 16.63 30 29v2l2 1 1.156 3.316c1.578 3.868 3.514 5.05 7.238 6.736l2.106.886c14.502 6.692 27.752 16.785 35.5 31.062l1.473 2.645c5.432 11.545 5.99 27.577 1.902 39.667A77 77 0 0 1 292 234c-.4.819-.802 1.637-1.215 2.48-8.712 16.288-24.64 26.028-41.785 31.52-22.513 6.49-47.217 6.002-69-3l-2-2 1.769.048c2.702.063 5.404.101 8.106.14l2.781.076c15.29.161 25.967-6.719 37.344-16.264l2.059-1.578c13.146-10.475 23.123-28.327 25.257-44.875.645-12.899-5.712-23.64-11.976-34.383-2.096-3.625-3.778-7.28-5.34-11.164l-.918 3.148c-6.383 21.46-17.867 35.104-33.707 50.477C187.091 224.431 176.632 236.579 176 260c-6.682-7.87-7.583-15.967-7.348-26.125 2.08-23.183 17.933-40.294 34.711-54.937l1.95-1.625c9.259-7.946 15.778-16.823 17.093-29.106.683-12.533-3.803-22.21-9.406-33.207zM613 382c13.612 3.889 21.892 15.46 29 27 5 9.558 5 9.558 5 13l2.055.281c3.653.892 6.78 2.453 10.07 4.219l1.998 1.072c6.236 3.454 11.61 7.626 16.877 12.428l2.242 1.996c10.272 9.632 15.765 21.696 16.23 35.73.167 17.037-4.805 29.438-16.534 41.962-16.325 15.654-39.133 21.934-61.313 21.75l-3.831-.02c-13.016-.216-24.082-2.562-35.794-8.418v-1l1.753.063c15.635.751 15.635.751 30.247-4.063l2.71-1.473C632.918 515.15 647.59 496.364 654 475l.574-1.902c2.851-14.047-2.296-25.487-9.082-37.442-2.324-4.138-4.403-8.395-6.492-12.656l-1.066 3.516c-7.343 23.516-22.72 43.032-41.746 58.609-8.781 7.6-16.352 17.768-18.938 29.188-.355 5.232-.327 10.445-.25 15.687-6.518-7.417-7.535-13.672-7.437-23.25l.022-3.116c.158-7.247.953-13.178 4.415-19.634l1.18-2.598c5.949-12.232 15.896-21.875 25.93-30.82 10.12-9.04 19.802-18.565 21.89-32.582.51-13.019-4.12-23.676-10-35zM798 123c11.554 1.815 19.5 11.833 26.047 20.805 2.933 4.425 5.019 8.256 6.39 13.382 1.621 4.461 3.929 5.906 7.995 7.947 2.141.996 4.292 1.967 6.447 2.932 5.624 2.54 10.328 6.084 15.121 9.934l2.133 1.602c11.138 8.867 17.858 21.778 20.367 35.585 1.497 13.264-3.484 27.045-11.605 37.532-2.214 2.53-4.504 4.92-6.895 7.281l-1.828 1.895c-17.347 16.705-41.875 19.535-64.742 19.324-11.175-.259-21.081-3.058-31.43-7.219v-1l3.55.14c18.598.52 31.556-5.753 45.45-18.14 2.529-2.529 4.777-5.2 7-8l2.184-2.645C834.575 231.265 841.89 216.06 840 199c-1.213-4.248-3.02-8.059-5-12l-1.973-3.992q-2.06-4.145-4.156-8.27c-2.112-4.182-4.025-8.431-5.871-12.738l-.664 3.078c-5.416 23.992-19.917 38.98-37.113 55.562C770.155 235.214 761.888 246.463 761 268c-5.656-5.388-7.103-10.162-7.407-17.874-.263-18.845 6.483-33.673 19.505-47.173q1.449-1.478 2.902-2.953l1.44-1.482c4.423-4.548 8.877-9.009 13.747-13.08 8.47-7.306 15.34-16.04 16.188-27.461.373-8.755-.588-15.979-4.375-23.977l-1.379-3.113A405 405 0 0 0 798 123M776 294c9.92.933 16.626 10.259 22.89 17.379C810 325.183 810 325.183 810 333l2.547.773C829.948 339.954 846.482 352.371 855 369l1.188 2.168c4.962 10.839 4.668 26.304 1.187 37.582C849.6 427.778 835.534 439.117 817 447c-22.843 8.715-50.432 9.082-73-1v-1l3.953-.043c20.636-.459 35.049-8.246 49.435-22.802 12.534-13.272 21.333-30.048 20.98-48.518-1.084-10.732-7.028-19.977-12.38-29.106-2.195-3.81-3.988-7.054-3.988-11.531h-2l.313 3.125c-.144 20.38-17.533 37.198-30.883 50.387l-1.524 1.509a1054 1054 0 0 1-7.67 7.531c-11.207 10.973-19.68 22.231-20.798 38.198l-.254 3.547L739 440c-5.113-4.512-6.714-11.077-7.36-17.672-.36-17.693 6.349-33.414 18.36-46.328 14.758-15.348 14.758-15.348 21.828-21.254 7.923-6.67 13.104-16.18 14.55-26.43.496-11.004-3.7-20.863-9.206-30.171C776 296 776 296 776 294M213 287c6.747.494 10.808 3.582 15.2 8.426A248 248 0 0 1 235 304l1.953 2.55c3.138 4.278 5.254 7.975 6.922 13.012 2.993 7.07 9.199 9.117 15.75 12.254 15.107 7.282 27.393 19.936 33.813 35.434 3.722 12.38 3.635 28.248-1.895 40.035-10.174 17.9-25.396 29.827-45.267 35.433-21.946 5.945-45.213 4.909-66.276-3.718l2-2c1.777.355 1.777.355 4 1 14.414 1.306 25.61-4.099 36.598-13.137 2.523-2.234 4.968-4.532 7.402-6.863l2.309-2.082c12.528-11.704 22.41-29.032 23.129-46.418-.435-11.456-6.771-21.212-12.098-31.047-2.01-3.743-3.736-7.52-5.34-11.453l-.812 2.973C233.08 344.366 227.04 356.733 217 368l-1.327 1.505c-8.461 9.57-8.461 9.57-12.946 13.225-2.749 1.98-2.749 1.98-3.727 4.27h-2l-.742 1.758c-1.465 2.61-3.155 4.122-5.383 6.117-3.902 3.801-6.703 7.676-9.375 12.375l-1.024 1.789c-3.15 5.758-3.615 10.796-4.038 17.274l-.254 3.8L176 433c-5.638-5.184-6.712-10.462-7.324-17.977-.724-18.763 6.453-33.506 18.77-47.273 4.563-4.927 9.524-9.43 14.456-13.981 9.794-9.097 19.18-18.7 20.336-32.644.267-11.246-2.383-20.836-8.285-30.418C213 289 213 289 213 287"/><path fill="#FBF4E0" d="M406 413c2.836 1.418 2.945 3.053 4.063 6 2.497 6.243 5.542 12.076 8.814 17.947 5.753 10.508 6.563 20.339 3.623 31.928-6.758 21.403-23.943 40.514-43.5 51.125-6.922 3.239-13.127 5.145-20.812 5.125l-2.958.008c-3.793-.156-7.468-.62-11.23-1.133-.834-16.67 1.727-27.198 13-40 5.063-5.274 10.364-10.327 15.647-15.38C389.34 452.608 400.262 435.514 406 413"/><path fill="#FBF4E0" d="M382 377c6.281 5.494 9.605 16.096 10.254 24.152.423 12.583-2.74 21.627-11.254 30.848-6.502 6.799-13.088 13.532-20.219 19.676-12.975 11.232-21.777 26.821-23.058 44.054-.192 7.626.477 14.167 3.277 21.27l1.188 3.125L343 522c-5.098-1.336-8.59-3.71-12.5-7.125l-1.73-1.493c-6.617-5.838-11.344-12.235-14.77-20.382l-.91-2.059c-4.005-10.748-3.917-25.118.719-35.601L315 453l1.098-2.309c3.159-6.178 7.383-11.454 11.902-16.691l1.578-1.836c7.415-7.976 17.024-13.963 26.547-19.101C366.475 407.276 376.248 399.7 380 388c.868-3.65 1.526-7.28 2-11"/><path fill="#EA8A75" d="M297 212c7.087 3.239 11.036 7.643 14.938 14.313 2.548 8.845 1.446 16.65-2.938 24.687-10.423 16.994-30.497 24.466-49 29-26.612 6.134-55.546 3.971-79.687-9.375-5.565-3.539-10.956-7.65-15.313-12.625v-3l2.387 1.574c10.138 6.491 20.6 11.534 32.613 13.426l2.07.336c23.964 3.09 49.787-.247 69.93-14.336 15.228-11.946 21.89-25.268 25-44M485 128c6.79 3.211 11.512 9.17 14.5 16 2.748 7.963 1.993 14.455-1.117 22.23-7.642 15.306-23.025 22.884-38.528 28.25-27.935 9.086-60.278 8.524-86.855-4.48-7.01-3.686-13.406-7.734-18.73-13.652-1.25-1.481-1.25-1.481-3.27-2.348l1-2 2.246 1.54c6.265 4.094 12.365 7.356 19.442 9.835l2.046.721c10.571 3.531 20.8 4.312 31.891 4.279l2.158-.003c10.588-.043 20.23-.544 30.217-4.372l2.042-.764c8.587-3.266 16.14-6.954 22.958-13.236l2.035-1.727c12.28-11.12 15.56-24.541 17.965-40.273M464 469c7.84 4.666 13.484 11.089 16 20 1.165 8.943-.398 17.731-5.687 25.125A149 149 0 0 1 471 518l-1.676 1.992C459.261 531.068 445.085 536.178 431 540l-1.992.543c-26.299 6.756-55.851 3.606-79.883-8.918-7.362-4.386-13.977-9.762-19.125-16.625 2.86 1.363 5.424 2.94 8.063 4.688 4.92 2.971 10.007 5.06 15.375 7.062l2.345.89c23.928 8.648 50.372 5.943 73.217-4.39 15.062-7.294 25.927-18.836 31.867-34.543 2.169-6.496 2.793-12.89 3.133-19.707M713 133c5.77 2.252 9.562 5.94 13 11 3.143 7.65 3.27 16.361.563 24.188-6.734 14.502-21.33 22.2-35.563 27.812-2.813.988-5.645 1.89-8.5 2.75l-1.973.602c-25.66 7.327-56.315 6.416-80.164-6.196-8.674-4.865-16.257-10.235-22.363-18.156 3.468 1.29 6.452 2.818 9.563 4.813C609.59 193.173 635.357 194.666 660 189c16.845-4.184 33.062-12.708 42.875-27.437 5.377-9.102 7.991-18.25 10.125-28.563M296 385c3.458 1.92 6.04 3.82 8.625 6.813l1.727 1.957c5.48 7.415 5.482 14.275 4.648 23.23-.84 3.403-2.116 6.056-4 9l-1.367 2.227C294.26 444.692 272.697 451.215 254 455c-27.35 4.62-55.386 1.52-78.781-13.824-4.769-3.537-8.529-7.54-12.219-12.176 3.46 1.285 6.409 2.807 9.5 4.813 20.445 12.381 45.823 14.235 68.86 9.164 18.807-5.045 35.333-13.602 46.18-30.32 4.823-8.771 7.266-17.765 8.46-27.657M860 390c6.67 3.725 12.225 9.24 14.563 16.676 1.67 8.871 1.159 17.514-3.563 25.324-14.495 19.165-37.104 26.633-60.04 30.27-25.997 3.546-53.53-.15-74.96-16.27a215 215 0 0 1-10-9c4.25 0 7.15 2.204 10.75 4.25 7.938 4.36 15.362 6.862 24.25 8.75l2.453.676c23.117 5.94 49.475-1.024 69.524-12.613 3.059-2.087 5.426-4.44 8.023-7.063h2l.793-1.75c1.28-2.384 2.764-4.195 4.52-6.25 7.679-9.819 9.813-20.994 11.687-33M882 223c6.282 2.422 11.104 9.08 14 15 1.773 8.636.597 17.434-4 25-5.07 7.219-11.383 11.718-19 16l-2.328 1.367C845.68 294.053 812.988 295.293 786 288a101 101 0 0 1-13-5l-3.258-1.488c-8.58-4.25-15.028-9.822-21.742-16.512 3.704 0 4.804 1.037 7.875 3.063 5.749 3.454 11.577 5.709 17.938 7.812l2.712.903c24.341 7.801 51.687 3.851 74.163-7.528 5.837-3.31 10.579-7.525 15.312-12.25.576-.565 1.152-1.13 1.746-1.71 7.14-7.604 11.24-18.084 13.379-28.165l.508-2.367zM697 480c6.177 2.995 11.172 8.473 13.938 14.75a33.2 33.2 0 0 1-1.489 23.809c-10.387 17.498-29.13 24.48-47.847 29.32-27.666 6.675-57.142 4.723-82.164-9.379-4.56-2.805-8.608-5.757-12.438-9.5v-2l-1.875-.812C563 525 563 525 561 522c3.369 1.24 6.101 2.644 9 4.75 20.19 13.637 44.47 16.41 68.227 12.52 19.266-3.892 37.004-13.196 48.875-29.082 5.95-9.318 7.797-19.497 9.898-30.188"/><path fill="#EA816C" d="M578 175c3.477 1.296 6.494 2.828 9.625 4.813 5.256 3.221 10.717 5.756 16.375 8.187-3.937 1.312-6.125.243-10-1l1 2c-4.804-1.489-7.747-4.179-11.312-7.562l-1.667-1.538A178 178 0 0 1 578 176z"/><path fill="#EA806B" d="M330 515c3.021 1.452 5.842 3.106 8.688 4.875 4.617 2.8 9.32 5.076 14.312 7.125-3.879 1.293-7.122 1.118-11 0-2.482-1.542-4.453-3.427-6.5-5.5-.536-.512-1.072-1.024-1.625-1.55-1.326-1.283-2.605-2.612-3.875-3.95z"/><path fill="#EA7F6A" d="m164 255 14 8c-2 2-2 2-4.187 2.063-4.195-1.585-7.03-4.59-9.813-8.063z"/><path fill="#EA816B" d="M163 429c3.591 1.343 6.787 2.948 10.063 4.938l2.535 1.527A87 87 0 0 1 182 440c-7.837-1.225-13.034-3.236-17.969-9.574z"/><path fill="#E9826C" d="m464 469 3 3c-.363 3.355-.363 3.355-1.312 7.188l-.926 3.855L464 486h-1z"/><path fill="#704231" d="m563 973-1 3h-8v-2c2.957-1.478 5.742-1.06 9-1"/><path fill="#F7D692" d="M101 625h2l1 7-3 2z"/><path fill="#ECC184" d="M456 909c6.055-.195 6.055-.195 8 0l2 2c-2.789 1.394-4.92 1.257-8 1z"/></svg>